<svg width="52" height="52" xmlns="http://www.w3.org/2000/svg"><g fill-rule="nonzero"><path d="M19.5 16.6s2.4-1.4 3.2.1c.7.4 2.3 9.7 2.7 11.5.3 1.8 1.2 2.5 1.7 1.7s2.3-2.8 3.5-5.6c1.2-2.8-.4-3.2-.9-3-.5.2-3 .2-2.1-.9.9-1.1 3.2-3 3.8-3.3 1.1-.8 2.6-1.8 4-.1.9.7 2.9 3 .9 6.6-2 3.5-9.4 11.7-9.4 11.7s-2.8 1.9-3.9 0-4.8-10.7-5-11.9c-.1-1.2-.4-1.5-1-1.2-.6.3-1.8 2.1-1.9 1.6-.1-.5-1.2-1.2-.5-2.3.7-1.1 4.4-4.6 4.9-4.9Z"/><path d="M26 51.3C12.1 51.3.7 40 .7 26S12.1.7 26 .7 51.3 12 51.3 26 39.9 51.3 26 51.3Zm0-47.4C13.8 3.9 3.9 13.8 3.9 26c0 12.2 9.9 22.1 22.1 22.1 12.2 0 22.1-9.9 22.1-22.1 0-12.2-9.9-22.1-22.1-22.1Z"/></g></svg>