<svg width="52" height="52" xmlns="http://www.w3.org/2000/svg"><g fill-rule="nonzero"><path d="M26 51.3C12.1 51.3.7 40 .7 26S12.1.7 26 .7 51.3 12 51.3 26 39.9 51.3 26 51.3Zm0-47.4C13.8 3.9 3.9 13.8 3.9 26c0 12.2 9.9 22.1 22.1 22.1 12.2 0 22.1-9.9 22.1-22.1 0-12.2-9.9-22.1-22.1-22.1Z"/><g transform="translate(12 12)"><path d="M14 2.8c3.6 0 4.1 0 5.5.1 1.3.1 2 .3 2.5.5.6.2 1.1.5 1.6 1s.8.9 1 1.6c.2.5.4 1.2.5 2.5.1 1.4.1 1.9.1 5.5s0 4.1-.1 5.5c-.1 1.3-.3 2-.5 2.5-.2.6-.5 1.1-1 1.6s-.9.8-1.6 1c-.5.2-1.2.4-2.5.5-1.4.1-1.9.1-5.5.1s-4.1 0-5.5-.1c-1.3-.1-2-.3-2.5-.5-.6-.2-1.1-.5-1.6-1s-.8-.9-1-1.6c-.2-.5-.4-1.2-.5-2.5-.1-1.4-.1-1.9-.1-5.5s0-4.1.1-5.5c.1-1.3.3-2 .5-2.5.2-.6.5-1.1 1-1.6s.9-.8 1.6-1c.5-.2 1.2-.4 2.5-.5 1.4 0 1.9-.1 5.5-.1m0-2.4c-3.7 0-4.2 0-5.6.1-1.4.1-2.4.3-3.3.6-.9.3-1.7.8-2.4 1.6-.8.8-1.2 1.5-1.6 2.4C.8 6 .5 7 .5 8.4.4 9.9.4 10.3.4 14c0 3.7 0 4.2.1 5.6.1 1.4.3 2.4.6 3.3.3.9.8 1.7 1.6 2.4.8.8 1.5 1.2 2.4 1.6.9.3 1.9.6 3.3.6 1.5.1 1.9.1 5.6.1 3.7 0 4.2 0 5.6-.1 1.4-.1 2.4-.3 3.3-.6.9-.3 1.7-.8 2.4-1.6.8-.8 1.2-1.5 1.6-2.4.3-.9.6-1.9.6-3.3.1-1.5.1-1.9.1-5.6 0-3.7 0-4.2-.1-5.6-.1-1.4-.3-2.4-.6-3.3-.3-.9-.8-1.7-1.6-2.4-.8-.8-1.5-1.2-2.4-1.6C22 .8 21 .5 19.6.5 18.2.4 17.7.4 14 .4Z"/><path d="M14 7c-3.9 0-7 3.1-7 7s3.1 7 7 7 7-3.1 7-7-3.1-7-7-7Zm0 11.5c-2.5 0-4.5-2-4.5-4.5s2-4.5 4.5-4.5 4.5 2 4.5 4.5-2 4.5-4.5 4.5Z"/><circle cx="21.3" cy="6.7" r="1.6"/></g></g></svg>