<svg viewBox="0 0 46 12" xmlns="http://www.w3.org/2000/svg" xml:space="preserve" style="fill-rule:evenodd;clip-rule:evenodd;stroke-linejoin:round;stroke-miterlimit:2"><path d="M40.4 11.1c-2.8 0-5.1-2.3-5.1-5.1 0-2-1.6-3.6-3.6-3.6S28.1 4 28.1 6c0 2.8-2.3 5.1-5.1 5.1S17.9 8.8 17.9 6c0-2-1.6-3.6-3.6-3.6S10.7 4 10.7 6c0 2.8-2.3 5.1-5.1 5.1S.5 8.8.5 6c0-.4.3-.7.7-.7.4 0 .7.3.7.7 0 2 1.6 3.6 3.6 3.6S9.1 8 9.1 6c0-2.8 2.3-5.1 5.1-5.1s5.1 2.3 5.1 5.1c0 2 1.6 3.6 3.6 3.6S26.5 8 26.5 6c0-2.8 2.3-5.1 5.1-5.1s5.1 2.3 5.1 5.1c0 2 1.6 3.6 3.6 3.6S43.9 8 43.9 6c0-.4.3-.7.7-.7.4 0 .7.3.7.7.2 2.8-2.1 5.1-4.9 5.1Z" style="fill-rule:nonzero"/></svg>